General

Format                           : MPEG-4
Format profile                   : Base Media
Codec ID                         : isom
File size                        : 87.5 MiB
Duration                         : 3mn 47s
Overall bit rate                 : 3 228 Kbps
Encoded date                     : UTC 2012-07-05 00:50:54
Tagged date                      : UTC 2012-07-05 00:50:54

Video
ID                               : 1
Format                           : AVC
Format/Info                      : Advanced Video Codec
Format profile                   : High@L3.0
Format settings, CABAC           : Yes
Format settings, ReFrames        : 2 frames
Codec ID                         : avc1
Codec ID/Info                    : Advanced Video Coding
Duration                         : 3mn 47s
Bit rate mode                    : Variable
Bit rate                         : 3 180 Kbps
Maximum bit rate                 : 5 924 Kbps
Width                            : 720 pixels
Height                           : 480 pixels
Display aspect ratio             : 16:9
Original display aspect ratio    : 16:9
Frame rate mode                  : Constant
Frame rate                       : 30.000 fps
Standard                         : NTSC
Color space                      : YUV
Chroma subsampling               : 4:2:0
Bit depth                        : 8 bits
Scan type                        : Progressive
Bits/(Pixel*Frame)               : 0.307
Stream size                      : 85.8 MiB (98%)


Audio
ID                               : 2
Format                           : AAC
Format/Info                      : Advanced Audio Codec
Format profile                   : LC
Codec ID                         : 40
Duration                         : 3mn 47s
Bit rate mode                    : Variable
Bit rate                         : 54.3 Kbps
Maximum bit rate                 : 70.2 Kbps
Channel(s)                       : 2 channels
Channel positions                : Front: L R
Sampling rate                    : 44.1 KHz
Compression mode                 : Lossy
Stream size                      : 1.47 MiB (2%)